Coordinates
version=1
nRows=16
nColumns=22
inDegrees=yes

Units are S.I. units (second, meters, Newtons, ...)
If the header above contains a line with 'inDegrees', this indicates whether rotational values are in degrees (yes) or radians (no).

endheader
time	pelvis_tilt	pelvis_list	pelvis_rotation	pelvis_tx	pelvis_ty	pelvis_tz	hip_flexion_r	hip_adduction_r	hip_rotation_r	knee_angle_r	ankle_angle_r	subtalar_angle_r	hip_flexion_l	hip_adduction_l	hip_rotation_l	knee_angle_l	ankle_angle_l	subtalar_angle_l	lumbar_extension	lumbar_bending	lumbar_rotation
      2.03000000	     -0.46643683	     -4.70337435	    116.95179569	     -0.75715322	      0.98240431	      0.36589854	     -7.73214769	      1.69700642	      5.22670429	    -33.50274753	      1.69941020	     11.28389734	     25.07625542	     -1.11715035	      5.69304145	    -20.31734835	      3.15485933	     10.97961973	      0.59342207	     -5.46623727	      4.62997608
      2.04000000	     -0.92884912	     -4.90570482	    116.16171917	     -0.76324741	      0.98365656	      0.35744307	     -6.42758268	      0.59565115	      3.72010133	    -36.06265295	      0.85488553	     11.58909602	     24.43338772	     -0.75497378	      4.80036164	    -20.53190209	      3.45564145	     10.33378973	      0.53132048	     -6.00909121	      4.55386475
      2.05000000	     -1.40599200	     -5.12707925	    115.32440462	     -0.76913487	      0.98484010	      0.34916636	     -5.00712672	     -0.60317779	      2.24997527	    -38.62501650	      0.36404098	     11.46703070	     23.74454501	     -0.36684552	      3.89472093	    -20.59722240	      3.78713227	      9.80289331	      0.47384483	     -6.55433914	      4.48718196
      2.06000000	     -1.88393833	     -5.34029525	    114.46108949	     -0.77477992	      0.98596682	      0.34107952	     -3.51094329	     -1.83107795	      0.91512592	    -41.14485983	      0.24622651	     10.95215992	     23.02871795	      0.03276010	      3.01063691	    -20.57591915	      4.13924266	      9.15044191	      0.38988251	     -7.07939591	      4.36042068
      2.07000000	     -2.34514280	     -5.52635313	    113.58966144	     -0.78019163	      0.98707888	      0.33312156	     -1.97738011	     -3.04213154	     -0.28610824	    -43.56742199	      0.53349529	     10.19844620	     22.28851470	      0.41613537	      2.13087782	    -20.48864682	      4.49714355	      8.61094133	      0.27781530	     -7.56280838	      4.19025544
      2.08000000	     -2.76351723	     -5.66498012	    112.72633009	     -0.78533825	      0.98820079	      0.32526902	     -0.43239580	     -4.16248502	     -1.32317978	    -45.85703272	      1.16787922	      9.19759690	     21.52592303	      0.75526258	      1.30712387	    -20.35993186	      4.88333058	      8.11718990	      0.12784585	     -7.97744146	      3.97361103
      2.09000000	     -3.13100386	     -5.75422583	    111.87300602	     -0.79016462	      0.98935999	      0.31751484	      1.11877641	     -5.14855807	     -2.17180722	    -47.99434140	      2.04337012	      8.11451703	     20.75896638	      1.03384867	      0.51314074	    -20.22149356	      5.24178775	      7.73685776	     -0.06394712	     -8.32196038	      3.69157491
      2.10000000	     -3.41491931	     -5.77770916	    111.04226098	     -0.79467607	      0.99056349	      0.30984673	      2.65639338	     -5.94003406	     -2.85930177	    -49.95367366	      3.06526972	      6.93557200	     19.98358374	      1.22080720	     -0.19312715	    -20.08258101	      5.61672967	      7.41881065	     -0.29840096	     -8.55993780	      3.38636725
      2.11000000	     -3.62181952	     -5.75230658	    110.22686384	     -0.79884837	      0.99180992	      0.30224249	      4.18625415	     -6.52849594	     -3.38590069	    -51.72221000	      4.09330982	      5.80233939	     19.21067772	      1.31813098	     -0.87015025	    -19.94457431	      5.98455210	      7.18354936	     -0.55850285	     -8.70848967	      3.03214781
      2.12000000	     -3.75879765	     -5.68292799	    109.41277610	     -0.80267141	      0.99308004	      0.29473797	      5.71357226	     -6.91819676	     -3.77185126	    -53.30749413	      5.04385243	      4.77025666	     18.44620921	      1.33302428	     -1.51382147	    -19.82381657	      6.33095303	      7.01338572	     -0.84486000	     -8.77896150	      2.69434253
      2.13000000	     -3.79304704	     -5.57633865	    108.62160973	     -0.80619136	      0.99436428	      0.28726602	      7.21608367	     -7.07336320	     -4.07806405	    -54.66048802	      5.84584724	      3.70992800	     17.67853675	      1.24070812	     -2.10548573	    -19.67735952	      6.71126860	      6.85839537	     -1.12612479	     -8.73730257	      2.32317685
      2.14000000	     -3.79131015	     -5.45521669	    107.78481594	     -0.80933467	      0.99563877	      0.27986736	      8.72388216	     -7.07660611	     -4.25863419	    -55.82474068	      6.51819436	      2.96937033	     16.90287936	      1.09288343	     -2.75439135	    -19.50376335	      7.04685681	      6.76310482	     -1.40619562	     -8.66724053	      2.02498856
      2.15000000	     -3.72441651	     -5.33865690	    106.99321153	     -0.81229483	      0.99685363	      0.27255092	     10.21791174	     -6.95015676	     -4.49644519	    -56.76245068	      7.01101958	      2.18799613	     16.15769877	      0.89344818	     -3.41214369	    -19.32089920	      7.39777148	      6.66587303	     -1.65717268	     -8.53292092	      1.67313074
      2.16000000	     -3.63695283	     -5.20881736	    106.16691789	     -0.81495329	      0.99805032	      0.26530997	     11.68850341	     -6.71582327	     -4.67191395	    -57.50054327	      7.45598836	      1.74564340	     15.37838735	      0.66585322	     -4.09795941	    -19.08293460	      7.72057957	      6.59862346	     -1.91455927	     -8.38389048	      1.38167667
      2.17000000	     -3.52815077	     -5.11417484	    105.36241337	     -0.81748250	      0.99915897	      0.25808914	     13.15223566	     -6.44040150	     -4.92263137	    -58.01931182	      7.83074459	      1.40198477	     14.61066256	      0.43676598	     -4.83506975	    -18.78219073	      8.02503353	      6.54157053	     -2.11197429	     -8.22624994	      1.08441546
      2.18000000	     -3.41224343	     -5.02435030	    104.56958490	     -0.81985488	      1.00021009	      0.25093062	     14.58008561	     -6.12244206	     -5.20539867	    -58.33514202	      8.20456458	      1.25427291	     13.82720447	      0.21372121	     -5.58153630	    -18.43520498	      8.31160615	      6.49934964	     -2.30309316	     -8.06617991	      0.78349139
